<?xml version="1.0" encoding="UTF-8"?>
<svg xmlns="http://www.w3.org/2000/svg" width="340" height="340" viewBox="0 0 340 340">
  <rect width="340" height="340" fill="#00DDFF"/>
  <circle cx="52" cy="50" r="22" fill="#FFEE88"/>
  <rect y="200" width="340" height="140" fill="#0044BB"/>
  <rect y="198" width="340" height="4" fill="#5599DD"/>
  <rect y="222" width="340" height="2.5" fill="#0066CC"/>
  <rect y="248" width="340" height="2.5" fill="#0066CC"/>
  <ellipse cx="170" cy="332" rx="160" ry="64" fill="#DDAA33"/>
  <ellipse cx="170" cy="328" rx="155" ry="60" fill="#FFDD55"/>
  <polygon points="138,292 139.41,277.56 141.1,263.31 143.06,249.24 145.29,235.37 147.79,221.68 150.56,208.18 153.6,194.88 156.91,181.76 160.5,168.82 164.36,156.08 168.49,143.53 172.89,131.16 177.56,118.99 182.5,107 193.5,107 189.49,118.99 185.74,131.16 182.27,143.53 179.07,156.08 176.14,168.82 173.49,181.76 171.1,194.88 168.99,208.18 167.14,221.68 165.57,235.37 164.27,249.24 163.24,263.31 162.49,277.56 162,292" fill="#AA5522"/><path d="M 140.32 269.62 A 11.28 3.2 0 0 0 162.87 269.62" fill="none" stroke="#884411" stroke-width="3"/><path d="M 143.29 247.69 A 10.56 3.2 0 0 0 164.4 247.69" fill="none" stroke="#884411" stroke-width="3"/><path d="M 146.92 226.22 A 9.83 3.2 0 0 0 166.59 226.22" fill="none" stroke="#884411" stroke-width="3"/><path d="M 151.21 205.21 A 9.11 3.2 0 0 0 169.43 205.21" fill="none" stroke="#884411" stroke-width="3"/><path d="M 156.15 184.65 A 8.39 3.2 0 0 0 172.93 184.65" fill="none" stroke="#884411" stroke-width="3"/><path d="M 161.76 164.56 A 7.67 3.2 0 0 0 177.09 164.56" fill="none" stroke="#884411" stroke-width="3"/><path d="M 168.01 144.91 A 6.94 3.2 0 0 0 181.9 144.91" fill="none" stroke="#884411" stroke-width="3"/><path d="M 174.93 125.73 A 6.22 3.2 0 0 0 187.37 125.73" fill="none" stroke="#884411" stroke-width="3"/><polyline points="140.5,292 141.91,277.56 143.6,263.31 145.56,249.24 147.79,235.37 150.29,221.68 153.06,208.18 156.1,194.88 159.41,181.76 163,168.82 166.86,156.08 170.99,143.53 175.39,131.16 180.06,118.99 185,107" fill="none" stroke="#CC7733" stroke-width="2.5"/><ellipse cx="150" cy="293" rx="20.4" ry="5.5" fill="#884411"/>
  <path d="M 188 107 Q 146.03 84.16 94.74 135.58 Q 136.71 128.24 188 107 Z" fill="#00AA00"/><path d="M 188 107 Q 141.37 106.2 94.74 135.58" fill="none" stroke="#007700" stroke-width="2"/><path d="M 188 107 Q 154.02 46.15 112.49 87.27 Q 146.47 99.75 188 107 Z" fill="#00DD00"/><path d="M 188 107 Q 150.24 72.95 112.49 87.27" fill="none" stroke="#007700" stroke-width="2"/><path d="M 188 107 Q 173.42 31.63 155.61 65.92 Q 170.18 86.84 188 107 Z" fill="#00AA00"/><path d="M 188 107 Q 171.8 59.24 155.61 65.92" fill="none" stroke="#007700" stroke-width="2"/><path d="M 188 107 Q 188 30 188 62.4 Q 188 84.6 188 107 Z" fill="#00DD00"/><path d="M 188 107 Q 188 57.3 188 62.4" fill="none" stroke="#007700" stroke-width="2"/><path d="M 188 107 Q 202.91 30.24 221.13 64.71 Q 206.22 86.19 188 107 Z" fill="#00AA00"/><path d="M 188 107 Q 204.57 58.21 221.13 64.71" fill="none" stroke="#007700" stroke-width="2"/><path d="M 188 107 Q 224.41 48.92 268.9 91.16 Q 232.5 102.08 188 107 Z" fill="#00DD00"/><path d="M 188 107 Q 228.45 75.5 268.9 91.16" fill="none" stroke="#007700" stroke-width="2"/><path d="M 188 107 Q 230.86 83.98 283.24 135.42 Q 240.38 128.16 188 107 Z" fill="#00AA00"/><path d="M 188 107 Q 235.62 106.07 283.24 135.42" fill="none" stroke="#007700" stroke-width="2"/><circle cx="179" cy="116" r="6.5" fill="#8B4513"/><circle cx="194" cy="119" r="6.5" fill="#8B4513"/><circle cx="187" cy="124" r="6.5" fill="#8B4513"/>
</svg>
